<?xml version="1.0"?><svg width="640" height="480" xmlns="http://www.w3.org/2000/svg" xmlns:xlink="http://www.w3.org/1999/xlink">
 <title>laurel crown brown</title>
 <metadata id="metadata17720">image/svg+xml</metadata>
 <g display="inline">
  <title>Layer 1</title>
  <g display="inline" id="layer3"/>
  <g display="inline" id="layer1">
   <g id="g22249">
    <path fill="#ffcc00" stroke="black" stroke-width="2.748" stroke-linecap="round" stroke-linejoin="round" stroke-miterlimit="4" stroke-dashoffset="0" d="m203.604935,63.617096c-57.058151,37.261116 -94.903725,102.222763 -94.903725,176.144821c0,115.568802 92.422417,209.353134 206.312706,209.353134c113.889679,0 206.334167,-93.784332 206.334167,-209.353134c0,-76.288635 -40.305542,-143.067497 -100.449158,-179.666962c-13.758026,-6.433399 -75.634125,-43.274124 0,6.645943c19.199432,12.098907 36.451385,27.359024 50.540802,45.21566c34.942078,43.267441 50.320343,101.756256 42.354279,157.114609c-7.723602,57.248413 -41.372681,109.779663 -88.834198,141.230225c-46.645935,31.606964 -106.686157,41.071289 -160.858612,26.606506c-57.811081,-14.764282 -107.394318,-57.88266 -131.995804,-112.895447c-26.385185,-57.494995 -23.228043,-127.755905 7.160767,-182.989944c15.263901,-28.499878 37.76091,-52.642197 64.338776,-70.603745c75.119492,-54.560336 19.264832,-19.530811 0,-6.801666l0,0l0,0z" id="path18706"/>
    <path fill="#ffcc00" stroke="black" stroke-width="1.015004" d="m226.611008,474.173706c0.001373,-0.771271 40.054825,-20.153046 47.228683,-22.854492c9.901093,-3.728638 26.221008,-6.411316 32.005432,-5.261108l4.204163,0.835419l-4.695313,5.45224c-2.581879,2.998169 -6.872131,6.922668 -9.533905,8.72049c-6.422333,4.337494 -22.135345,9.525116 -34.164337,11.278839c-8.47377,1.235107 -35.046799,2.621857 -35.044724,1.828613zm159.482254,-0.42511c-17.984894,-1.053955 -19.352997,-1.297241 -36.119324,-6.421356c-10.031281,-3.065674 -12.596619,-4.547363 -20.340179,-11.748016l-8.861603,-8.239258l3.912781,-1.063354c10.066406,-2.735504 42.37149,6.28772 56.520142,15.786133c2.68866,1.805176 6.428497,3.728668 8.310486,4.274658c4.290253,1.244446 16.427399,7.264191 16.427399,8.147064c0,0.361572 -0.770172,0.560669 -1.711151,0.441742c-0.94101,-0.118286 -9.103363,-0.648254 -18.13855,-1.177612zm-195.758652,-23.345642c-7.529312,-2.270355 -16.368851,-4.872192 -19.643036,-5.781128l-5.952499,-1.653473l10.059525,-1.689545c5.532974,-0.928986 16.030609,-2.875153 23.328461,-4.324127c20.349121,-4.0401 40.73201,-2.866516 53.916901,3.105072l3.524918,1.595978l-4.401123,3.820221c-11.528915,10.005035 -37.118912,12.077515 -60.833145,4.927002zm203.383011,1.57254c-9.792206,-3.500061 -18.737122,-9.591949 -16.176636,-11.016785c5.349762,-2.975464 23.200348,-6.63797 32.355377,-6.63797c8.441376,0 30.671814,3.379791 51.880585,7.888367c3.997559,0.849487 2.309113,1.598724 -15.190155,6.738861c-17.173462,5.044586 -21.332825,5.7771 -32.562012,5.734344c-9.217773,-0.035431 -14.983582,-0.804016 -20.307159,-2.706818zm-113.228302,-10.975403c-8.641846,-2.488892 -26.623322,-22.720123 -29.901642,-33.6427l-0.945786,-3.149902l5.912537,2.997498c3.252121,1.649475 10.171097,4.438446 15.376205,6.198151c17.31189,5.852661 25.273804,12.18045 30.263977,24.052124l2.114136,5.029205l-9.258392,-0.122284c-5.092102,-0.067505 -11.194763,-0.680389 -13.561035,-1.362091zm48.793121,-0.939636c0,-3.708588 9.759857,-15.803528 16.138763,-19.999298c2.815399,-1.85199 9.064819,-4.654327 13.888245,-6.228271c4.823425,-1.573944 11.805115,-4.317444 15.514648,-6.095886l6.745392,-3.234741l-0.872131,3.453278c-2.106506,8.343506 -15.453339,25.237732 -23.760376,30.076477c-4.770416,2.778961 -8.486145,3.69928 -16.885468,4.182465c-10.128418,0.582794 -10.769073,0.45517 -10.769073,-2.154022zm-86.244034,-6.682709c-14.794785,-5.245148 -25.263504,-17.12146 -30.85434,-35.002808c-1.891632,-6.049774 -3.820465,-13.640076 -4.286133,-16.868164l-0.847992,-5.869293l18.437515,18.115875c19.025818,18.69339 22.906204,24.287384 24.090347,34.729523c0.688202,6.071136 -0.568314,7.011475 -6.539398,4.894867zm138.634384,-4.477173c1.618195,-11.989319 8.639801,-21.174286 34.677582,-45.362061l8.353882,-7.76004l-1.111176,6.989471c-3.561401,22.394623 -15.325195,41.896698 -29.124573,48.283264c-3.853516,1.783813 -8.473053,3.24884 -10.266174,3.256165c-3.013123,0.012024 -3.205292,-0.398346 -2.529541,-5.406799zm-214.610855,-8.02475c-15.758514,-4.860809 -19.839355,-6.875854 -34.926224,-17.244415c-8.35347,-5.741028 -15.000832,-10.572479 -14.771851,-10.735504c2.06839,-1.474335 51.431946,3.873016 55.755981,6.040405c1.186218,0.594177 6.160522,3.018921 11.05423,5.388794c4.893707,2.369293 11.302231,6.406036 14.24025,8.970428l5.341476,4.662323l-4.913681,2.040466c-8.165833,3.391785 -22.357864,3.783417 -31.780182,0.877502zm271.932114,1.095398c-3.280334,-0.64093 -6.837646,-1.886749 -7.906097,-2.767578c-2.519867,-2.078522 -0.123993,-4.834045 10.025757,-11.530182c11.229919,-7.409821 23.909912,-11.222687 42.44455,-12.764526c23.863739,-1.984955 30.348724,-2.210236 29.613007,-1.029877c-1.572021,2.520264 -29.76593,20.296692 -36.346649,22.917267c-15.34729,6.109894 -25.757477,7.534149 -37.830566,5.174896zm-246.24704,-17.99765c-8.597748,-6.448761 -16.327515,-17.43219 -18.150955,-25.79245c-0.871414,-3.995972 -1.365326,-14.91394 -1.122162,-24.823334l0.433289,-17.688873l5.002563,9.525116c2.751328,5.238464 6.615189,11.868317 8.586716,14.732819c9.573868,13.912781 14.915329,32.767242 12.290756,43.38443l-1.239273,5.013184l-5.800934,-4.350891zm239.529938,-9.30722c0.72467,-14.674713 3.054474,-21.916809 10.299957,-32.013367c1.702148,-2.371918 5.798187,-9.34198 9.102692,-15.488678l6.007599,-11.176636l0.958221,11.438599c1.153168,13.755707 -0.774323,31.401123 -4.2276,38.706055c-2.696899,5.704926 -14.320129,18.0979 -19.616882,20.915588l-3.219757,1.712952l0.69577,-14.094513zm-291.404343,-16.774597c-4.616791,-1.014557 -10.464584,-2.909943 -12.995888,-4.21051c-8.260269,-4.245972 -22.339737,-16.364258 -28.525902,-24.552704c-3.331146,-4.409668 -7.906326,-10.007019 -10.167183,-12.439056c-4.636971,-4.988525 -4.363625,-5.221069 2.901161,-2.464203c2.838676,1.077362 8.623161,2.635284 12.854317,3.462006c8.837608,1.726349 24.14492,8.680359 32.757133,14.881836c6.545609,4.713104 16.736008,16.022034 19.87587,22.0578c1.868195,3.590302 1.835815,3.905731 -0.399567,3.923126c-1.337082,0.01004 -3.662689,0.281403 -5.168549,0.602814c-1.505859,0.321503 -6.515305,-0.245911 -11.131393,-1.261108zm335.913437,1.037231c-2.07077,-0.318115 -3.76474,-0.888214 -3.76474,-1.266479c0,-2.7034 8.372559,-13.845917 14.895416,-19.823547c9.006226,-8.253265 27.485748,-17.938812 38.560699,-20.21048c4.104248,-0.842133 10.16217,-2.412689 13.462463,-3.491425c7.110535,-2.323792 8.648071,-1.642761 3.645569,1.615387c-1.977783,1.288574 -5.716248,5.470337 -8.3078,9.293915c-8.008057,11.81488 -12.382324,15.866302 -29.202423,27.048248c-6.33963,4.214539 -22.220764,7.920471 -29.289185,6.834381zm-324.456223,-18.077179c-3.549728,-4.121613 -5.247086,-7.951172 -6.95961,-15.696503c-1.245483,-5.634094 -2.264313,-12.608887 -2.264313,-15.498749c0,-7.566925 4.99704,-30.606476 8.085922,-37.280487c2.599091,-5.616058 2.636292,-5.637421 2.756149,-1.610718c0.066132,2.244934 2.266373,12.654297 4.888885,23.131805c2.986923,11.934509 4.774536,22.388641 4.785568,27.987976c0.017212,8.842072 -3.023438,22.223511 -5.378677,23.670441c-0.670273,0.411713 -3.33136,-1.704926 -5.913925,-4.703766zm319.506699,1.628754c-5.544708,-13.924774 -5.333191,-23.028198 1.128357,-48.583405c2.270508,-8.980438 4.135956,-17.976227 4.145599,-19.989929c0.057159,-11.897705 6.064087,1.543152 9.622772,21.530426c3.420258,19.211365 -1.012604,41.595978 -9.467773,47.809509l-3.963745,2.9133l-1.46521,-3.679901zm-355.918617,-38.445404c-9.813873,-3.463989 -19.642349,-11.137787 -25.503571,-19.912415c-2.64373,-3.957886 -8.478638,-14.564392 -12.9664,-23.57019l-8.159622,-16.374268l6.449654,3.685852c3.547318,2.027069 10.050217,6.172119 14.450905,9.211029c4.400688,3.039581 10.161674,6.829041 12.802238,8.422394c9.911552,5.980255 21.155853,23.415863 23.168236,35.925079c1.016357,6.31781 0.575005,6.430084 -10.24144,2.612518zm388.589485,0.703766c0,-1.146881 1.934296,-7.070343 4.297821,-13.163574c4.838593,-12.470459 11.240936,-20.326141 22.920685,-28.122253c10.678101,-7.127808 28.093384,-17.851959 28.998535,-17.856628c1.444519,-0.007996 -16.495605,34.65329 -21.244019,41.044556c-5.557007,7.47937 -14.743042,14.090546 -24.506409,17.638062c-8.504059,3.089081 -10.466614,3.175964 -10.466614,0.459839zm-379.065186,-17.604706c-3.684059,-9.78775 -3.729111,-22.164703 -0.122894,-33.769653c2.932709,-9.438263 20.509018,-37.763718 20.443558,-32.945679c-0.216293,15.837585 -2.951782,47.595612 -4.52652,52.548676c-2.687286,8.45108 -6.826004,16.312073 -10.172516,19.320221c-2.70723,2.433472 -2.796387,2.351929 -5.621628,-5.153564zm374.593719,5.062042c-3.305145,-3.648438 -8.674866,-15.236755 -10.454895,-22.565063c-1.399078,-5.758392 -4.538239,-49.967529 -3.617889,-50.941956c1.024323,-1.083374 17.52887,26.069153 20.076294,33.028503c4.216522,11.522156 4.175903,27.523468 -0.093018,36.396301c-1.710419,3.554901 -3.254211,6.463501 -3.431244,6.463501c-0.177002,0 -1.292297,-1.071381 -2.479248,-2.381287zm-399.63501,-48.787933c-12.517609,-8.194458 -19.585243,-22.040405 -23.612564,-46.258911c-1.132629,-6.811691 -2.500786,-13.54718 -3.040382,-14.968079c-0.752724,-1.982971 0.168571,-1.634079 3.958366,1.497742c2.716682,2.245636 6.445107,5.11879 8.285347,6.3853c5.761406,3.964554 20.444603,25.688202 23.128349,34.217499c3.033432,9.640762 3.414993,24.031357 0.637207,24.031357c-1.024483,0 -5.234833,-2.207489 -9.356323,-4.904907zm419.624542,-5.223053c1.014038,-11.923767 4.175293,-20.89151 10.612671,-30.104523c4.815186,-6.891235 25.455078,-27.802841 27.441101,-27.802841c0.615112,0 0.510315,1.587982 -0.232239,3.52951c-0.742554,1.940826 -2.215332,8.830063 -3.272766,15.307571c-3.717773,22.774918 -11.546814,37.381409 -23.996704,44.767181c-11.086609,6.577789 -11.573608,6.315155 -10.552063,-5.696899zm-405.016571,-6.675995c-0.621765,-4.946365 -0.203491,-10.069839 1.305466,-15.988617c3.781197,-14.83107 7.976189,-21.577271 21.296448,-34.248917c6.786728,-6.456146 12.339691,-11.425888 12.339691,-11.044266c0,0.381607 -0.985092,3.871002 -2.189224,7.753372c-6.664108,21.491028 -10.830368,33.275818 -13.290985,37.593277c-3.780518,6.63324 -16.311623,23.21402 -17.54435,23.21402c-0.551163,0 -1.413826,-3.275528 -1.917046,-7.27887zm393.932037,0.704407c-11.103821,-13.089371 -17.0784,-26.403961 -26.969116,-60.100159l-0.99884,-3.40184l3.397461,3.40184c1.868896,1.870667 8.031494,7.881027 13.695343,13.355362c8.774109,8.481873 10.845551,11.400482 14.001251,19.730652c3.937561,10.394638 5.800232,25.406799 3.797058,30.607147c-1.169739,3.038254 -1.397766,2.919937 -6.923157,-3.593002zm-403.602615,-44.98439c-10.926323,-6.622543 -15.289742,-21.295212 -13.569984,-45.632034c0.58567,-8.287369 1.080009,-17.009155 1.098602,-19.382431c0.032791,-4.194489 0.163742,-4.099579 4.70462,3.401825c2.568916,4.243942 5.523811,8.655655 6.566277,9.803833c2.815392,3.100418 8.220039,15.951202 10.192947,24.236572c1.734016,7.282196 1.305199,14.931305 -1.395996,24.902222c-1.632332,6.025726 -1.903191,6.121307 -7.596466,2.670013zm413.943192,-0.488571c-1.111145,-1.944183 -1.753174,-8.274658 -1.759338,-17.348663c-0.008972,-13.385468 0.269348,-14.845764 4.418396,-23.132477c2.435852,-4.864151 7.119385,-12.971085 10.408752,-18.014343l5.97937,-9.169586l1.173828,13.251785c2.063843,23.299545 0.588989,36.285995 -5.33667,46.99678c-2.429626,4.391617 -9.5849,10.47818 -12.318298,10.47818c-0.449158,0 -1.603699,-1.377457 -2.56604,-3.061676zm-400.816841,-8.582092c0,-11.504761 6.79966,-24.115585 18.542702,-34.389954c4.944,-4.326126 28.94548,-17.919418 31.639648,-17.919418c0.403671,0 -1.208267,2.295731 -3.582794,5.102722c-2.373825,2.806366 -8.019791,10.613205 -12.545639,17.348694c-9.065491,13.491043 -18.017319,23.312927 -26.771362,29.375412c-6.972839,4.828064 -7.282555,4.848785 -7.282555,0.482544zm388.071449,-0.100922c-8.11554,-5.330658 -19.689911,-16.833389 -22.642395,-22.501556c-4.036743,-7.750046 -10.947418,-17.670822 -15.926575,-22.863815c-2.490234,-2.597824 -4.527924,-5.240417 -4.527924,-5.872665c0,-0.632263 6.2005,2.073853 13.779419,6.013687c10.803497,5.616043 15.673096,9.157547 22.543152,16.396317c8.734131,9.202988 10.691925,13.214355 13.657471,27.986603c1.075317,5.354706 0.158447,5.466324 -6.883148,0.841431zm-386.271919,-45.665451c-8.864754,-14.934647 -8.521698,-24.640228 1.958649,-55.414459l3.899956,-11.45195l4.627594,13.954201c3.646866,10.995468 4.624359,16.165062 4.611969,24.378906c-0.017914,11.437248 -3.721252,23.349693 -9.243767,29.730965l-3.050644,3.525482l-2.803757,-4.723145zm386.058357,2.781616c-0.819763,-1.012543 -3.257629,-5.208344 -5.417908,-9.324615c-3.651733,-6.960068 -3.92038,-8.532013 -3.83905,-22.45211c0.078461,-13.35804 0.542786,-16.138329 4.321228,-25.853279c2.557739,-6.576424 4.549255,-10.07785 5.031464,-8.844772c5.997314,15.339012 11.72522,36.032707 11.754822,42.471466c0.026917,5.749023 -4.439697,18.577087 -7.983215,22.926636c-1.944702,2.387955 -2.646698,2.583115 -3.86734,1.076675zm-372.007263,-8.304092c4.7146,-14.778259 24.196426,-28.902214 47.351318,-34.327759c13.609924,-3.189308 14.568848,-2.695412 6.483612,3.343681c-3.987854,2.978104 -9.439545,7.451279 -12.115799,9.939514c-11.460678,10.658638 -33.824036,24.058784 -40.207764,24.092857c-1.95845,0.01004 -2.280151,-0.63826 -1.511368,-3.048294zm357.320648,2.083206c-4.872375,-1.238419 -19.275177,-9.819183 -26.827911,-15.983246c-4.141479,-3.379791 -11.960815,-9.654808 -17.37738,-13.944191c-5.416534,-4.290062 -9.639282,-8.008682 -9.383026,-8.263306c1.292297,-1.28389 18.554626,3.116455 28.565216,7.282196c12.837006,5.340675 23.362213,14.078514 28.115417,23.339653c4.34256,8.46048 3.972687,9.365402 -3.092316,7.568893zm-345.524506,-44.265266c-2.071426,-9.488373 -0.856262,-20.904228 3.056503,-28.706398c1.93364,-3.856964 7.470062,-11.778099 12.30246,-17.601986l8.786499,-10.589798l0.956818,8.880867c2.099014,19.480671 -2.705856,35.679821 -13.83931,46.656597c-3.984421,3.928474 -7.864792,7.143173 -8.62323,7.143173c-0.757767,0 -1.945358,-2.601837 -2.63974,-5.782455l0,0zm329.291992,-0.219887c-3.840393,-3.520782 -8.0466,-9.241089 -10.244781,-13.932808c-3.336884,-7.121803 -3.780487,-9.820541 -4.216583,-25.648758l-0.486328,-17.688866l5.256042,5.998985c15.237122,17.390793 19.380585,24.896881 20.518616,37.170204c0.757751,8.167076 -1.22757,20.120964 -3.336853,20.089554c-0.53595,-0.008018 -3.905914,-2.702759 -7.490112,-5.988312zm-308.828506,-4.975105c11.696259,-11.000137 23.408386,-14.89254 44.703308,-14.85511c15.051743,0.026741 17.722473,1.441612 8.906372,4.719131c-3.617935,1.344688 -11.506149,4.868835 -17.529602,7.830902c-12.000061,5.901405 -24.734451,9.140175 -36.080078,9.176926l-7.331604,0.024071l7.331604,-6.89592zm282.489731,4.961746c-4.516876,-0.916969 -14.065216,-4.443115 -21.218475,-7.834908c-7.152466,-3.392494 -15.308685,-6.989471 -18.124756,-7.993301c-7.375702,-2.628578 -3.919647,-3.963905 10.325378,-3.988647c21.885345,-0.03743 35.76123,4.906937 47.425079,16.900246l4.718018,4.850784l-7.455597,-0.133675c-4.10083,-0.073509 -11.152039,-0.883537 -15.669647,-1.800499zm-244.713654,-27.946503c-2.831924,-0.546036 -5.537796,-1.379448 -6.013123,-1.851959c-1.552704,-1.543182 2.21196,-4.648285 9.493973,-7.831573c10.932999,-4.778603 27.945251,-4.479187 43.763,0.770592c6.587631,2.186798 11.978012,4.461823 11.978012,5.055969c0,0.594154 -2.309753,1.085388 -5.133423,1.091393c-2.823669,0.006012 -11.909821,0.912956 -20.192078,2.014374c-16.070572,2.138008 -25.605164,2.349197 -33.896362,0.751205zm194.062683,-0.028069c-4.516876,-0.610184 -13.325439,-1.571259 -19.574127,-2.135338c-6.248016,-0.5634 -10.868256,-1.503761 -10.266846,-2.088554c2.311798,-2.248283 22.106384,-7.953201 30.595276,-8.817364c10.275146,-1.046612 23.784515,1.777775 30.189606,6.3111c4.563049,3.229408 4.943298,4.677025 1.568542,5.966248c-3.913483,1.4944 -23.672211,1.958893 -32.512451,0.763908zm-213.468735,-4.932991c-2.997269,-11.869667 5.977982,-26.59045 23.313309,-38.234875c4.447327,-2.987469 9.407166,-6.123976 11.022552,-6.970757l2.935959,-1.538511l-2.441345,9.433573c-3.434708,13.273167 -7.293716,20.498562 -15.227402,28.509914c-5.617722,5.672176 -15.410629,12.345516 -18.117889,12.345516c-0.324448,0 -0.993347,-1.595329 -1.485184,-3.544861zm253.712997,0.830742c-6.433289,-3.375099 -18.794373,-16.86414 -21.964508,-23.969227c-2.618317,-5.869331 -7.186249,-22.232222 -6.410583,-22.965384c0.248016,-0.234589 4.917847,2.447447 10.377106,5.96022c11.044617,7.107756 22.94754,20.061464 25.137421,27.355692c1.665619,5.547859 1.149719,15.269485 -0.83902,15.824211c-0.75296,0.209854 -3.588348,-0.782623 -6.300415,-2.205513zm-209.93692,-24.840076c2.85466,-13.178253 9.921738,-18.5998 31.429565,-24.112242c5.270508,-1.350718 10.72287,-2.920643 12.116455,-3.48806c4.806213,-1.956217 -1.426666,7.240757 -12.090302,17.840582c-10.244827,10.182785 -18.265961,14.182106 -28.446747,14.182106c-3.759842,0 -3.916885,-0.231239 -3.008972,-4.422386zm159.518768,2.181454c-3.336823,-1.160896 -8.502625,-4.040092 -11.479279,-6.398659c-5.077606,-4.022041 -20.457245,-22.754856 -19.479736,-23.726616c0.245911,-0.244608 3.441589,0.477188 7.10083,1.604c3.659241,1.126827 10.57135,3.151209 15.358948,4.499245c13.332336,3.75271 23.464905,13.899406 23.464905,23.497383c0,2.226238 -0.867981,2.75288 -4.449432,2.700089c-2.446869,-0.035431 -7.179352,-1.014542 -10.516235,-2.175442z" id="path17799"/>
   </g>
  </g>
 </g>
 <g display="inline">
  <title>Layer 2</title>
  <image xlink:href="images/logo.png" id="svg_1" y="144" x="199"/>
 </g>
</svg>